<?xml version="1.0" standalone="no"?>
<!DOCTYPE svg PUBLIC "-//W3C//DTD SVG 20010904//EN"
 "http://www.w3.org/TR/2001/REC-SVG-20010904/DTD/svg10.dtd">
<svg version="1.0" xmlns="http://www.w3.org/2000/svg"
 width="512.000000pt" height="512.000000pt" viewBox="0 0 512.000000 512.000000"
 preserveAspectRatio="xMidYMid meet">

<g transform="translate(0.000000,512.000000) scale(0.100000,-0.100000)"
fill="#000000" stroke="none">
<path d="M3257 3754 c-136 -21 -340 -78 -540 -150 -347 -126 -579 -204 -675
-228 -254 -64 -470 -71 -672 -21 -124 31 -177 29 -251 -12 -56 -30 -88 -64
-122 -127 l-22 -41 -3 -739 c-3 -859 -7 -815 86 -906 65 -63 155 -106 312
-148 84 -23 115 -26 270 -26 144 -1 195 3 288 22 165 33 325 82 612 187 529
193 674 228 930 229 148 0 176 -3 279 -28 126 -32 173 -31 244 5 58 29 94 65
125 124 l27 50 3 739 c3 832 5 806 -69 890 -68 76 -234 150 -408 180 -113 19
-292 19 -414 0z m493 -89 c100 -27 200 -70 252 -106 17 -12 41 -45 54 -73 l24
-51 0 -730 c0 -689 -1 -732 -19 -770 -33 -72 -111 -125 -183 -125 -18 0 -66 9
-106 20 -117 31 -236 43 -357 37 -234 -13 -429 -64 -870 -227 -262 -97 -429
-151 -582 -186 -108 -26 -134 -28 -313 -28 -184 0 -200 2 -285 28 -99 30 -199
74 -247 107 -17 12 -41 45 -54 73 l-24 51 0 713 c0 511 3 726 12 760 15 62 77
124 142 142 44 12 57 11 169 -16 111 -26 138 -29 292 -28 258 0 411 37 886
210 558 203 699 236 964 230 123 -4 167 -9 245 -31z"/>
<path d="M3335 3483 c-175 -22 -383 -82 -755 -218 -140 -51 -291 -104 -335
-118 -225 -74 -459 -113 -612 -103 -102 6 -106 4 -118 -59 -10 -55 -39 -109
-72 -131 -22 -15 -46 -19 -108 -19 l-80 0 -3 -427 -2 -427 70 -37 c116 -61
200 -172 200 -265 0 -47 25 -52 199 -46 255 9 404 48 926 237 417 152 593 197
819 209 132 7 126 3 145 86 24 100 92 152 185 141 30 -3 55 -1 63 5 10 9 13
94 13 423 0 226 -4 416 -8 423 -4 6 -28 21 -52 31 -111 49 -183 131 -204 235
l-13 62 -114 1 c-63 1 -127 0 -144 -3z m214 -120 c34 -100 110 -182 209 -227
l42 -19 0 -369 0 -368 -38 0 c-51 0 -136 -44 -169 -87 -15 -19 -34 -58 -44
-86 l-18 -52 -98 -8 c-244 -18 -411 -64 -948 -261 -365 -135 -553 -179 -759
-180 l-139 -1 -11 46 c-25 96 -116 205 -210 251 l-46 22 0 368 0 368 44 0 c70
0 144 44 184 110 17 30 32 64 32 77 0 22 3 23 88 23 246 1 442 49 963 238 286
104 467 159 604 186 114 22 131 24 218 22 l78 -1 18 -52z"/>
<path d="M2471 3039 c-138 -24 -287 -139 -349 -270 -125 -262 6 -570 284 -670
83 -30 225 -30 308 0 291 104 419 438 268 701 -101 176 -311 274 -511 239z
m172 -74 c174 -37 296 -163 328 -339 41 -219 -115 -435 -345 -477 -172 -32
-358 64 -435 224 -80 164 -54 341 68 470 61 65 129 104 214 122 80 17 89 17
170 0z"/>
<path d="M2526 2824 c-3 -9 -6 -24 -6 -35 0 -11 -10 -23 -24 -29 -61 -23 -88
-99 -57 -163 25 -51 46 -65 109 -74 56 -7 72 -18 72 -48 0 -40 -30 -55 -108
-55 -58 0 -73 -3 -81 -18 -16 -30 5 -52 49 -52 33 0 40 -4 40 -19 0 -34 12
-51 34 -51 28 0 46 18 46 47 0 15 8 27 24 33 61 23 88 99 57 163 -25 51 -46
65 -109 74 -56 7 -72 18 -72 49 0 41 25 54 105 54 60 0 76 3 84 17 16 30 -5
53 -49 53 -35 0 -40 3 -40 23 0 13 -5 28 -12 35 -17 17 -55 15 -62 -4z"/>
<path d="M3355 2926 c-72 -31 -115 -122 -94 -198 34 -127 189 -164 281 -67 61
64 63 149 5 216 -52 60 -125 78 -192 49z m132 -91 c31 -31 35 -40 30 -72 -19
-117 -186 -113 -189 6 -1 36 25 79 55 91 42 17 68 11 104 -25z"/>
<path d="M1620 2457 c-30 -16 -51 -37 -67 -67 -27 -51 -29 -87 -8 -137 30 -72
80 -105 157 -105 142 2 214 163 121 273 -52 61 -129 75 -203 36z m139 -74 c66
-61 30 -163 -57 -163 -78 0 -124 74 -86 139 33 57 96 67 143 24z"/>
</g>
</svg>
